<?xml version="1.0" standalone="no"?>
<!DOCTYPE svg PUBLIC "-//W3C//DTD SVG 20010904//EN"
 "http://www.w3.org/TR/2001/REC-SVG-20010904/DTD/svg10.dtd">
<svg version="1.0" xmlns="http://www.w3.org/2000/svg"
 width="1024.000000pt" height="1024.000000pt" viewBox="0 0 1024.000000 1024.000000"
 preserveAspectRatio="xMidYMid meet">

<g transform="translate(0.000000,1024.000000) scale(0.100000,-0.100000)"
fill="#FFFFFF" stroke="none">
<path d="M6938 6693 l-3 -438 -52 -3 c-37 -2 -53 -8 -58 -20 -15 -37 -334
-943 -364 -1033 -55 -168 -35 -203 -240 422 -100 305 -187 570 -194 589 l-13
35 -206 3 -206 2 -52 -147 c-28 -82 -106 -308 -172 -503 -66 -195 -134 -391
-150 -434 l-31 -80 -33 120 c-38 141 -242 819 -285 952 l-31 92 -255 -2 -255
-3 -165 -285 c-90 -157 -188 -325 -216 -375 -29 -49 -56 -90 -61 -90 -8 0
-290 457 -389 630 -22 39 -48 82 -59 98 l-19 27 -294 0 c-162 0 -296 -4 -299
-8 -2 -4 41 -80 96 -168 86 -136 261 -416 605 -968 41 -65 76 -131 79 -146 4
-16 -29 -160 -85 -379 -50 -193 -91 -356 -91 -361 0 -6 104 -10 275 -10 151 0
275 2 275 4 0 2 27 118 59 257 32 140 69 299 81 353 27 121 38 146 100 246 60
96 274 468 283 493 3 9 10 17 15 17 5 0 41 -111 80 -247 73 -253 249 -849 303
-1025 l30 -98 213 0 214 0 10 28 c5 15 84 236 175 492 209 590 237 663 251
649 3 -2 28 -79 55 -169 132 -430 217 -706 251 -820 21 -69 43 -137 49 -152
l11 -28 209 0 c206 0 211 0 222 22 10 18 73 186 293 773 l41 110 5 -230 c3
-127 7 -220 8 -207 1 13 9 36 17 53 l16 29 40 -21 c31 -15 39 -24 34 -37 -29
-71 -8 -158 47 -192 92 -56 199 22 185 135 -3 22 -8 48 -12 57 -5 13 3 22 34
37 l40 21 15 -28 c37 -71 29 -180 -19 -249 -107 -158 -324 -122 -391 64 -12
34 -13 19 -14 -154 l0 -193 240 0 240 0 0 1465 0 1465 -240 0 -240 0 -2 -437z
m102 162 l0 -75 40 0 40 0 0 70 0 70 45 0 45 0 0 -70 0 -70 40 0 40 0 0 75 0
75 45 0 45 0 0 -125 0 -125 -215 0 -215 0 0 125 0 125 45 0 45 0 0 -75z m208
-581 c92 -38 131 -109 132 -236 l0 -88 -215 0 -215 0 0 85 c0 95 15 143 58
189 58 61 161 83 240 50z m-19 -724 c52 -15 105 -56 132 -103 34 -60 34 -155
-1 -215 -48 -84 -151 -126 -252 -101 -38 9 -63 24 -98 58 -91 88 -93 206 -7
298 62 65 143 87 226 63z"/>
<path d="M7105 6171 c-32 -14 -55 -46 -62 -85 l-6 -36 127 0 126 0 0 30 c0 18
-11 42 -28 61 -24 27 -37 33 -83 35 -30 2 -63 0 -74 -5z"/>
<path d="M7104 5441 c-35 -15 -64 -60 -64 -101 0 -71 62 -117 147 -107 95 10
136 109 75 178 -24 27 -37 33 -83 35 -30 2 -64 0 -75 -5z"/>
</g>
</svg>
